<svg width="512" height="512" viewBox="0 0 512 512" fill="none" xmlns="http://www.w3.org/2000/svg">
  <rect width="512" height="512" rx="120" fill="#16372F"/>
  <rect x="54" y="54" width="404" height="404" rx="96" fill="url(#paint0_linear_1_2)"/>
  <rect x="96" y="96" width="130" height="130" rx="40" fill="#F4D6A2"/>
  <path d="M122 146H182C208.51 146 230 167.49 230 194C230 220.51 208.51 242 182 242H122V146Z" fill="#1B433C"/>
  <path d="M122 146H178.5C195.345 146 209 159.655 209 176.5V176.5C209 193.345 195.345 207 178.5 207H122V146Z" fill="#16372F"/>
  <path d="M297 160H391" stroke="#F7FBF8" stroke-width="30" stroke-linecap="round"/>
  <path d="M297 226H381" stroke="#DCEFE8" stroke-width="22" stroke-linecap="round"/>
  <path d="M120 312C160 272 216 250 270 250C348 250 406 304 406 384V392H106V384C106 358 111 333 120 312Z" fill="url(#paint1_linear_1_2)"/>
  <path d="M142 390C142 323.726 195.726 270 262 270H262C328.274 270 382 323.726 382 390V392H142V390Z" fill="#0F625E"/>
  <path d="M168 390C168 338.086 210.086 296 262 296V296C313.914 296 356 338.086 356 390V392H168V390Z" fill="#257A69"/>
  <path d="M168 392H356" stroke="#F7FBF8" stroke-width="18" stroke-linecap="round"/>
  <defs>
    <linearGradient id="paint0_linear_1_2" x1="54" y1="54" x2="458" y2="458" gradientUnits="userSpaceOnUse">
      <stop stop-color="#24453F"/>
      <stop offset="1" stop-color="#122622"/>
    </linearGradient>
    <linearGradient id="paint1_linear_1_2" x1="106" y1="250" x2="406" y2="392" gradientUnits="userSpaceOnUse">
      <stop stop-color="#F6E1B7"/>
      <stop offset="1" stop-color="#C99E5E"/>
    </linearGradient>
  </defs>
</svg>
